<svg id="Ebene_1" data-name="Ebene 1" xmlns="http://www.w3.org/2000/svg" xmlns:xlink="http://www.w3.org/1999/xlink" viewBox="0 0 1417.32 283.46"><defs><style>.cls-1{fill:none;}.cls-2{clip-path:url(#clip-path);}.cls-3{fill:#47ad4c;}.cls-4{fill:#28285b;}.cls-5{fill:#fff;}.cls-6{fill:#28275b;}.cls-7{fill:#4dae51;}</style><clipPath id="clip-path"><rect class="cls-1" x="59.24" y="16.35" width="244.6" height="244.59" transform="translate(42.26 319.71) rotate(-89.8)"/></clipPath></defs><g class="cls-2"><path class="cls-3" d="M190.77,260.61C249.88,256.29,298,209.06,303.32,150a125,125,0,0,0-14.77-71.36l-159.88-.55c-3.73,1.23-12.43,5.9-12.57,22.27v.26c-.06,15.13,7.27,18.61,11.05,19.4l87,.3c5.4-.41,28.26-1.17,44.83,13.91,7.35,6.7,16.06,19.14,16,40.44v.56c-.22,20.53-8.93,32.52-16.2,39-16.8,14.9-40,14-45.43,13.5l-92.11-.32c-2.82,8.15-.14,18.14,9.79,22.65a122.32,122.32,0,0,0,59.72,10.55"/><path class="cls-4" d="M215.68,198.38c4.13.4,16.63.07,23.66-6.25,4.1-3.69,6.14-9.3,6.22-17.19,0-8.6-2-14.92-6.37-18.9-7.13-6.49-19.84-6.64-22.86-6.32l-1.58.08-90.25-.38c-13.18-1.31-38-13.2-37.84-48.87v-.43c.31-34.91,24.62-48.74,37.42-51.19l1.39-.26,120.65.41a17.8,17.8,0,0,0-9.69-19.73,121.91,121.91,0,0,0-63.25-12.72c-59.84,4-108.56,51.9-113.51,111.66a124.76,124.76,0,0,0,14.48,69.52l140.76.49Z"/><path class="cls-5" d="M231.15,135.13l.44,0-.44,0"/></g><path class="cls-6" d="M1302.91,212.22a89.32,89.32,0,0,1-14.36-4.33l-4.6,22.28a86,86,0,0,0,33.31,5.89q19.71,0,30.47-7.35T1358.5,207a37.16,37.16,0,0,0-1.38-10.66,21.68,21.68,0,0,0-4.79-8.36,36,36,0,0,0-9.29-7,113.27,113.27,0,0,0-14.91-6.59q-4.43-1.66-7.27-3.06a30.77,30.77,0,0,1-4.51-2.58,6.31,6.31,0,0,1-2.22-2.49,7.57,7.57,0,0,1-.55-2.95q0-7.17,12.89-7.18a57.13,57.13,0,0,1,12.61,1.29,99.7,99.7,0,0,1,10.4,3l4.79-21.36a79.62,79.62,0,0,0-12.89-3.4,89.36,89.36,0,0,0-16.94-1.57q-17.67,0-27.79,7.92t-10.13,21.54a31.66,31.66,0,0,0,2,12,25,25,0,0,0,5.7,8.56,34.73,34.73,0,0,0,8.93,6.17,125.33,125.33,0,0,0,11.69,5,77.16,77.16,0,0,1,12.34,5.62c2.69,1.65,4,3.58,4,5.79,0,2.83-1,4.73-3.13,5.71s-5.65,1.47-10.68,1.47a69.91,69.91,0,0,1-14.54-1.56m-91.68-36.91a39.22,39.22,0,0,1,1.75-6.9,18.67,18.67,0,0,1,3.4-6,16.51,16.51,0,0,1,5.53-4.14,18.45,18.45,0,0,1,7.91-1.56,17.44,17.44,0,0,1,8,1.65,16.69,16.69,0,0,1,5.34,4.24,17,17,0,0,1,3.13,5.89,28.94,28.94,0,0,1,1.2,6.81Zm-25.13,30.37a42,42,0,0,0,9.39,15.92,44.29,44.29,0,0,0,16,10.59q9.66,3.87,22.73,3.87a96.11,96.11,0,0,0,10.31-.56c3.44-.37,6.66-.82,9.67-1.38a76.34,76.34,0,0,0,8.19-1.93,37.31,37.31,0,0,0,5.89-2.21l-3.68-22.27a56,56,0,0,1-11.88,3.4,79.27,79.27,0,0,1-14.82,1.38q-11.78,0-18.77-5a18.22,18.22,0,0,1-7.92-13.44h62.22c.12-1.47.25-3.15.37-5.06s.19-3.65.19-5.24q0-24.48-12-37.1t-32.58-12.61a46.45,46.45,0,0,0-17.22,3.32,43.29,43.29,0,0,0-14.81,9.75,48.23,48.23,0,0,0-10.4,16.11q-4,9.66-4,22.55a63.17,63.17,0,0,0,3,19.88m-17.48-41.6A42.21,42.21,0,0,0,1142.94,138a59.55,59.55,0,0,0-21.35-3.59c-3.32,0-6.79.16-10.4.46s-7.19.71-10.68,1.2-6.84,1.07-10,1.75-6,1.38-8.46,2.12V267.53h27.43V231.09a51.52,51.52,0,0,0,9.57,3.13,49.5,49.5,0,0,0,10.67,1.1,42.85,42.85,0,0,0,18.23-3.68,36.55,36.55,0,0,0,13.25-10.31,45.92,45.92,0,0,0,8.1-15.83,71,71,0,0,0,2.77-20.44,61.19,61.19,0,0,0-3.41-21m-44.09,48a32.31,32.31,0,0,1-8.38-1.1,23.63,23.63,0,0,1-6.71-2.76V158.74c1.34-.24,3.06-.46,5.15-.64s4.36-.28,6.81-.28q11.24,0,16.94,7.64t5.7,20.34q0,26.32-19.51,26.32M1059.46,96.8a17.45,17.45,0,0,0-23,0q-4.87,4.32-4.88,11.87t4.88,11.87a17.45,17.45,0,0,0,23,0q4.88-4.32,4.88-11.87t-4.88-11.87m2.3,39.85h-27.43v96.83h27.43Z"/><path class="cls-7" d="M1015.28,164.08a43.38,43.38,0,0,0-9.84-15.92A43.88,43.88,0,0,0,989.6,138a59.55,59.55,0,0,0-21.35-3.59c-3.32,0-6.78.16-10.4.46s-7.18.71-10.68,1.2-6.84,1.07-10,1.75-6,1.38-8.47,2.11V267.54H956.1V231.09a51.52,51.52,0,0,0,9.57,3.13,49.6,49.6,0,0,0,10.68,1.1,42.8,42.8,0,0,0,18.22-3.68,36.61,36.61,0,0,0,13.26-10.31,46.19,46.19,0,0,0,8.1-15.83,71,71,0,0,0,2.76-20.43,61.25,61.25,0,0,0-3.41-21m-44.09,48a32.19,32.19,0,0,1-8.37-1.11,23.83,23.83,0,0,1-6.72-2.76V158.74c1.35-.24,3.06-.46,5.15-.64s4.36-.28,6.81-.28q11.24,0,16.94,7.64t5.7,20.34q0,26.32-19.51,26.33"/><path class="cls-6" d="M828.71,233.48h27.43V180.65c0-3.56-.12-6.91-.37-10a42,42,0,0,0-1.66-8.93,24,24,0,0,1,6.54-2.77,25,25,0,0,1,6.17-1.1q8.28,0,11.69,5.52t3.4,18.78v51.36h27.43V178.8a90,90,0,0,0-1.66-18,34.62,34.62,0,0,0-6.07-14,28.81,28.81,0,0,0-11.87-9.11q-7.46-3.21-19.06-3.22a51.44,51.44,0,0,0-27.61,9,38.45,38.45,0,0,0-10.77-6.35q-6.54-2.66-17-2.67c-3.57,0-7.19.16-10.87.46s-7.27.74-10.77,1.29-6.81,1.17-9.94,1.84-5.86,1.32-8.19,1.94v93.51h27.43V158.74c1.72-.24,3.5-.46,5.34-.64a52,52,0,0,1,5.34-.28q8.28,0,11.69,5.52t3.4,18.78ZM704.55,134.53q-4.69.47-8.93,1.11c-2.83.43-5.43.92-7.82,1.47s-4.39,1.08-6,1.57l3.5,22.08a60.21,60.21,0,0,1,11.78-2.85,94.43,94.43,0,0,1,13.81-1q10.5,0,14.73,4.23t4.23,11.23v2.58a42.7,42.7,0,0,0-6.72-1.2,88.45,88.45,0,0,0-9.48-.46,73.53,73.53,0,0,0-15.28,1.57,41.18,41.18,0,0,0-13.07,5.06,26.2,26.2,0,0,0-9.11,9.39,28.29,28.29,0,0,0-3.41,14.36,33.9,33.9,0,0,0,3,14.91,24.79,24.79,0,0,0,8.47,9.85,37.08,37.08,0,0,0,13.16,5.43,80.85,80.85,0,0,0,17,1.65,156.86,156.86,0,0,0,25.4-1.75c7-1.16,12.45-2.17,16.39-3V173.65a61.73,61.73,0,0,0-2-16.38,29.13,29.13,0,0,0-6.9-12.52,31.55,31.55,0,0,0-13-7.91q-8.1-2.78-20.25-2.76-4.78,0-9.48.45m-.18,77.32q-4.33-2.49-4.33-8.93a9.74,9.74,0,0,1,1.47-5.52,10.27,10.27,0,0,1,4-3.5,19.06,19.06,0,0,1,6-1.75,55.58,55.58,0,0,1,7.27-.46,54.25,54.25,0,0,1,6.08.37,50.13,50.13,0,0,1,5,.74v20.8a54.35,54.35,0,0,1-5.89.55q-3.69.18-7.73.18-7.56,0-11.87-2.48M602.66,175.31a39.55,39.55,0,0,1,1.75-6.91,18.54,18.54,0,0,1,3.4-6,16.6,16.6,0,0,1,5.52-4.14,18.46,18.46,0,0,1,7.92-1.56,17.47,17.47,0,0,1,8,1.65,16.46,16.46,0,0,1,8.46,10.13,28,28,0,0,1,1.2,6.81Zm-25.13,30.37a41.89,41.89,0,0,0,9.39,15.92,44.16,44.16,0,0,0,16,10.59q9.68,3.87,22.74,3.87A96.4,96.4,0,0,0,636,235.5c3.43-.37,6.65-.82,9.66-1.38a75.22,75.22,0,0,0,8.19-1.93,36.56,36.56,0,0,0,5.89-2.21L656,207.71a55.89,55.89,0,0,1-11.87,3.4,79.34,79.34,0,0,1-14.82,1.38q-11.77,0-18.78-5a18.21,18.21,0,0,1-7.91-13.44h62.22c.12-1.47.24-3.16.36-5.06s.19-3.65.19-5.24q0-24.48-12-37.1t-32.59-12.6a46.35,46.35,0,0,0-17.21,3.31,43.33,43.33,0,0,0-14.82,9.75,48.39,48.39,0,0,0-10.4,16.11,59.18,59.18,0,0,0-4,22.55,62.89,62.89,0,0,0,3,19.88m-5.8-67.37a29.62,29.62,0,0,0-5.34-1.57q-3.12-.63-6.26-1.1t-6.26-.74c-2.08-.18-3.86-.28-5.33-.28a99.92,99.92,0,0,0-22.37,2.31,162.48,162.48,0,0,0-17.39,4.88v91.67H536.2v-74a35.4,35.4,0,0,1,5.43-1,49.27,49.27,0,0,1,6.17-.47,54.71,54.71,0,0,1,10.68,1q5,1,8.65,1.94ZM431.65,193.9A77.41,77.41,0,0,0,433.4,211a31.41,31.41,0,0,0,6.16,13.16,29.21,29.21,0,0,0,11.78,8.47q7.37,3,18.6,3a64.47,64.47,0,0,0,14.91-1.47,79.3,79.3,0,0,0,11-3.5L492,209.36a46.64,46.64,0,0,1-8.55,2.31,52.65,52.65,0,0,1-9.12.82q-9.19,0-12.24-5.15t-3-13.81V159.48H492V136.65H459.08V108.12l-27.43,4.42Z"/><path class="cls-7" d="M362.06,212.22a90.86,90.86,0,0,1-14.35-4.33l-4.61,22.28a86.15,86.15,0,0,0,33.32,5.89q19.69,0,30.47-7.35T417.66,207a37.09,37.09,0,0,0-1.38-10.65,21.65,21.65,0,0,0-4.79-8.35,35.76,35.76,0,0,0-9.29-7,113.47,113.47,0,0,0-14.92-6.59c-2.94-1.11-5.37-2.13-7.27-3.06a30.85,30.85,0,0,1-4.51-2.59,6.22,6.22,0,0,1-2.2-2.48,7.39,7.39,0,0,1-.56-2.95q0-7.17,12.89-7.18a56.53,56.53,0,0,1,12.61,1.29,99.7,99.7,0,0,1,10.4,3l4.78-21.35a78,78,0,0,0-12.88-3.41,89.44,89.44,0,0,0-16.94-1.57q-17.67,0-27.79,7.92t-10.13,21.54a31.46,31.46,0,0,0,2,12,24.76,24.76,0,0,0,5.7,8.56,34.31,34.31,0,0,0,8.93,6.17,124.2,124.2,0,0,0,11.69,5,78,78,0,0,1,12.33,5.61q4,2.49,4.05,5.8,0,4.25-3.13,5.71t-10.67,1.47a70.07,70.07,0,0,1-14.55-1.56"/><path class="cls-4" d="M363.68,35.26a27.62,27.62,0,0,1,8.8,1.2,13.68,13.68,0,0,1,5.64,3.44,12.65,12.65,0,0,1,3,5.44,27.06,27.06,0,0,1,.88,7.12v24.8q-2.56.55-7.12,1.32a69.19,69.19,0,0,1-11,.76,35,35,0,0,1-7.4-.72,16.07,16.07,0,0,1-5.72-2.36A10.82,10.82,0,0,1,347,72a14.68,14.68,0,0,1-1.28-6.48,12.21,12.21,0,0,1,1.48-6.24,11.23,11.23,0,0,1,4-4.08,17.57,17.57,0,0,1,5.68-2.2,31.35,31.35,0,0,1,6.64-.68,36.18,36.18,0,0,1,4.12.2,17.33,17.33,0,0,1,2.92.52V51.9A6.61,6.61,0,0,0,368.72,47q-1.85-1.85-6.4-1.84a39.8,39.8,0,0,0-6,.44,25,25,0,0,0-5.12,1.24l-1.52-9.6c.69-.22,1.56-.44,2.6-.68s2.17-.46,3.4-.64,2.52-.35,3.88-.48A40.17,40.17,0,0,1,363.68,35.26Zm1,34.88c1.17,0,2.29,0,3.36-.08s1.92-.14,2.56-.24v-9a19.3,19.3,0,0,0-2.16-.32,23.26,23.26,0,0,0-2.64-.16,22.5,22.5,0,0,0-3.16.2,7.93,7.93,0,0,0-2.6.76,4.37,4.37,0,0,0-1.76,1.52,4.21,4.21,0,0,0-.64,2.4,4.08,4.08,0,0,0,1.88,3.88A10.37,10.37,0,0,0,364.64,70.14Z"/><path class="cls-4" d="M448.71,57.42a30.86,30.86,0,0,1-1.2,8.88A20,20,0,0,1,444,73.18a15.82,15.82,0,0,1-5.76,4.48,18.67,18.67,0,0,1-7.92,1.6,21.39,21.39,0,0,1-4.64-.48,23,23,0,0,1-4.16-1.36V93.26H409.59V37.82c1.07-.32,2.3-.63,3.68-.92s2.84-.55,4.36-.76,3.07-.39,4.64-.52,3.08-.2,4.52-.2A25.83,25.83,0,0,1,436.07,37a18.93,18.93,0,0,1,6.88,4.4,18.71,18.71,0,0,1,4.28,6.92A26.52,26.52,0,0,1,448.71,57.42Zm-12.16.32c0-3.68-.82-6.63-2.48-8.84s-4.1-3.32-7.36-3.32c-1.06,0-2,0-3,.12s-1.65.17-2.24.28V67.5a10.4,10.4,0,0,0,2.92,1.2,14.11,14.11,0,0,0,3.64.48Q436.56,69.18,436.55,57.74Z"/><path class="cls-4" d="M489.83,35.26a27.58,27.58,0,0,1,8.8,1.2,13.55,13.55,0,0,1,5.64,3.44,12.45,12.45,0,0,1,3,5.44,26.64,26.64,0,0,1,.88,7.12v24.8c-1.7.37-4.08.81-7.12,1.32a69.19,69.19,0,0,1-11,.76,35,35,0,0,1-7.4-.72,16.15,16.15,0,0,1-5.72-2.36A10.9,10.9,0,0,1,473.19,72a14.82,14.82,0,0,1-1.28-6.48,12.31,12.31,0,0,1,1.48-6.24,11.39,11.39,0,0,1,4-4.08A17.75,17.75,0,0,1,483,53a31.49,31.49,0,0,1,6.64-.68,36.06,36.06,0,0,1,4.12.2,17.15,17.15,0,0,1,2.92.52V51.9A6.57,6.57,0,0,0,494.87,47c-1.22-1.23-3.36-1.84-6.4-1.84a40,40,0,0,0-6,.44,25.12,25.12,0,0,0-5.12,1.24l-1.52-9.6c.7-.22,1.56-.44,2.6-.68s2.18-.46,3.4-.64,2.52-.35,3.88-.48A40.31,40.31,0,0,1,489.83,35.26Zm1,34.88c1.18,0,2.3,0,3.36-.08s1.92-.14,2.56-.24v-9a19.3,19.3,0,0,0-2.16-.32,23.26,23.26,0,0,0-2.64-.16,22.6,22.6,0,0,0-3.16.2,8.08,8.08,0,0,0-2.6.76,4.5,4.5,0,0,0-1.76,1.52,4.29,4.29,0,0,0-.64,2.4,4.1,4.1,0,0,0,1.88,3.88A10.42,10.42,0,0,0,490.79,70.14Z"/><path class="cls-4" d="M533.75,57.42a25,25,0,0,1,1.48-8.6A20.13,20.13,0,0,1,546.31,37a22.35,22.35,0,0,1,9.12-1.76A28.49,28.49,0,0,1,567,37.58l-2.48,9.52A29.13,29.13,0,0,0,560.87,46a19.17,19.17,0,0,0-4.48-.48c-3.52,0-6.14,1.09-7.88,3.28a13.5,13.5,0,0,0-2.6,8.64c0,3.78.82,6.72,2.44,8.8s4.47,3.12,8.52,3.12a30,30,0,0,0,4.64-.4,20,20,0,0,0,4.56-1.28l1.68,9.76a28.59,28.59,0,0,1-5.2,1.52,34.77,34.77,0,0,1-6.88.64,26,26,0,0,1-9.92-1.72,18.83,18.83,0,0,1-6.84-4.68,18.46,18.46,0,0,1-3.92-7A30,30,0,0,1,533.75,57.42Z"/><path class="cls-4" d="M592.55,78.46V18.3l11.92-1.92V36.54a24.27,24.27,0,0,1,3.08-.76,19.42,19.42,0,0,1,3.64-.36,22.32,22.32,0,0,1,8.52,1.4,13.15,13.15,0,0,1,5.44,4A15.24,15.24,0,0,1,628,46.86a33.78,33.78,0,0,1,.84,7.84V78.46H617V56.14q0-5.76-1.48-8.16T610,45.58a15.13,15.13,0,0,0-3,.28q-1.4.27-2.52.6v32Z"/><path class="cls-4" d="M654.47,57.74a25.65,25.65,0,0,1,1.72-9.8,20.94,20.94,0,0,1,4.52-7,18.76,18.76,0,0,1,6.44-4.24,20.18,20.18,0,0,1,7.48-1.44q9,0,14.16,5.48T694,56.86c0,.69,0,1.45-.08,2.28s-.11,1.56-.16,2.2h-27a7.93,7.93,0,0,0,3.44,5.84,13.84,13.84,0,0,0,8.16,2.16,34.45,34.45,0,0,0,6.44-.6,24.59,24.59,0,0,0,5.16-1.48l1.6,9.68a16.33,16.33,0,0,1-2.56,1,33.5,33.5,0,0,1-3.56.84q-2,.36-4.2.6a42,42,0,0,1-4.48.24,26.51,26.51,0,0,1-9.88-1.68,19.33,19.33,0,0,1-7-4.6,18.33,18.33,0,0,1-4.08-6.92A27.44,27.44,0,0,1,654.47,57.74Zm28-4.56a12.25,12.25,0,0,0-.52-3,7.33,7.33,0,0,0-1.36-2.56,7.2,7.2,0,0,0-2.32-1.84,7.54,7.54,0,0,0-3.48-.72,7.91,7.91,0,0,0-3.44.68,7,7,0,0,0-2.4,1.8,8,8,0,0,0-1.48,2.6,16.49,16.49,0,0,0-.76,3Z"/></svg>