<?xml version="1.0" encoding="UTF-8"?>
<svg width="40px" height="40px" viewBox="0 0 40 40" version="1.1" fill="currentColor" xmlns="http://www.w3.org/2000/svg" xmlns:xlink="http://www.w3.org/1999/xlink">
    <title>编组 9</title>
    <defs>
        <linearGradient x1="21.4018039%" y1="6.67873476%" x2="90.574187%" y2="88.6401169%" id="linearGradient-1">
            <stop stop-color="#FAAD1A" offset="0%"></stop>
            <stop stop-color="#FF4444" offset="100%"></stop>
        </linearGradient>
    </defs>
    <g id="页面1" stroke="none" stroke-width="1" fill="none" fill-rule="evenodd">
        <g id="应龙官网" transform="translate(-560.000000, -20.000000)">
            <g id="1">
                <g id="top-bar">
                    <g id="编组-9" transform="translate(560.000000, 20.000000)">
                        <path d="M39.9853818,19.2973018 C39.9950979,19.5529297 40,19.8097907 40,20.0677966 C40,31.0760486 31.0760486,40 20.0677966,40 C19.8097907,40 19.5529297,39.9950979 19.2973018,39.9853818 L39.9853818,19.2973018 Z M38.3014333,12.1275835 C38.8657526,13.4234274 39.2960338,14.7910849 39.5747667,16.2130456 L16.2130456,39.5747667 C14.7914516,39.2961057 13.4241329,38.8659746 12.1285862,38.30187 L38.3014333,12.1275835 Z M20.0677966,0 C27.3635314,0 33.7499449,3.8932668 37.2627853,9.71554842 L34.4765305,12.5016123 C31.7530746,7.32585554 26.3225853,3.79661017 20.0677966,3.79661017 C11.0814685,3.79661017 3.79661017,11.0814685 3.79661017,20.0677966 C3.79661017,26.3225853 7.32585554,31.7530746 12.5016123,34.4765305 L9.71554842,37.2627853 C3.8932668,33.7499449 0,27.3635314 0,20.0677966 C0,8.98465858 8.98465858,0 20.0677966,0 Z M20.7740808,7.23404255 L20.7740808,11.4142627 C22.3382531,11.3713803 24.0619423,11.9089542 25.1891562,13.0420104 C27.5366028,15.4016241 27.3045322,19.4605871 24.6708121,22.107958 L13.7024154,32.7659574 L11.0638298,30.1095317 L21.9862502,19.4977468 C22.961254,18.5176895 23.0460509,17.013939 22.1756493,16.139026 C21.3052478,15.2641131 19.8092512,15.3493495 18.8342473,16.3294068 L15.3014495,19.9204068 C14.7029075,20.5288097 13.7249835,20.5383696 13.1146618,19.9417842 C12.5032068,19.344091 12.4873719,18.365394 13.0791712,17.7482327 L14.2792437,16.4967299 C14.6589729,16.1007271 14.8593482,15.5661175 14.8334505,15.0180831 L14.8313187,14.9729714 C14.8041908,14.3990284 15.0252251,13.8411438 15.4380759,13.4415182 C16.5407895,12.3741285 17.2449732,11.6983767 17.5506271,11.4142627 C18.2901104,10.726892 19.0879682,10.0625976 19.3413209,7.23404255 L20.7740808,7.23404255 Z M16.8551245,13.4042553 L16.1599092,14.6091995 C16.0518372,14.7965094 16.0322948,15.0200384 16.1025104,15.2208872 L16.1451037,15.3191489 L16.8551245,14.6010638 C17.1829779,14.2694867 17.1829779,13.7358324 16.8551245,13.4042553 Z" id="形状结合" fill="url(#linearGradient-1)"></path>
                    </g>
                </g>
            </g>
        </g>
    </g>
</svg>